<?xml version="1.0" encoding="utf-8"?>
<!-- Generator: Adobe Illustrator 16.0.0, SVG Export Plug-In . SVG Version: 6.00 Build 0)  -->
<!DOCTYPE svg PUBLIC "-//W3C//DTD SVG 1.1//EN" "http://www.w3.org/Graphics/SVG/1.1/DTD/svg11.dtd">
<svg version="1.1" xmlns="http://www.w3.org/2000/svg" xmlns:xlink="http://www.w3.org/1999/xlink" x="0px" y="0px" width="595px"
	 height="842px" viewBox="0 0 595 842" enable-background="new 0 0 595 842" xml:space="preserve">
<g id="Background">
</g>
<g id="Guides">
</g>
<g id="Foreground">
	<g>
		<g>
			<polygon fill="#004284" points="164.959,451.543 151.859,438.442 158.714,431.587 164.959,437.833 171.205,431.587 
				178.061,438.442 			"/>
		</g>
		
			<line fill="none" stroke="#BB7009" stroke-width="0.9231" stroke-linecap="round" stroke-linejoin="round" stroke-miterlimit="3.8637" x1="203.708" y1="381.826" x2="203.708" y2="460.336"/>
		<g>
			
				<path fill-rule="evenodd" clip-rule="evenodd" fill="#004284" stroke="#FFFFFF" stroke-width="1.0893" stroke-miterlimit="3.8637" d="
				M304.102,437.49c0,0.209-0.129,0.366-0.388,0.47c-2.016,0.784-3.877,1.175-5.583,1.175c-3.826,0-6.489-1.618-7.988-4.855
				c-0.801-1.683-1.202-3.639-1.202-5.866c0-2.874,0.659-5.309,1.978-7.303c1.654-2.486,4.136-3.729,7.445-3.729
				c0.905,0,1.952,0.142,3.141,0.427c1.603,0.362,2.404,0.84,2.404,1.435c0,0.078-0.065,0.246-0.194,0.504l-0.117,0.116
				c-0.078,0.078-0.207,0.233-0.389,0.465c-0.13,0.698-0.389,1.047-0.778,1.047c-0.104,0-0.194-0.052-0.272-0.155
				c-0.311-0.362-0.869-0.659-1.673-0.892c-0.674-0.207-1.31-0.31-1.906-0.31c-4.28,0-6.419,2.812-6.419,8.435
				c0,2.229,0.467,4.03,1.401,5.403c1.089,1.581,2.684,2.371,4.785,2.371c1.686,0,3.242-0.297,4.668-0.892
				c0.467-0.078,0.7,0.17,0.7,0.745c0,0.261,0.091,0.561,0.272,0.901C304.063,437.19,304.102,437.36,304.102,437.49z"/>
			
				<path fill-rule="evenodd" clip-rule="evenodd" fill="#004284" stroke="#FFFFFF" stroke-width="1.0893" stroke-miterlimit="3.8637" d="
				M322.749,438.399c0,0.388-0.232,0.582-0.698,0.582c-0.078,0-0.207-0.019-0.388-0.058c-0.181-0.039-0.31-0.059-0.388-0.059
				s-0.194,0.02-0.349,0.059c-0.155,0.039-0.271,0.058-0.349,0.058c-0.491,0-0.736-0.193-0.736-0.582v-12.99
				c0-1.784-0.272-3.102-0.814-3.955c-0.698-1.034-1.887-1.551-3.567-1.551c-1.81,0-3.18,0.685-4.11,2.055
				c-0.775,1.163-1.163,2.701-1.163,4.614v11.826c0,0.388-0.232,0.582-0.698,0.582c-0.078,0-0.207-0.019-0.388-0.058
				c-0.181-0.039-0.31-0.059-0.388-0.059s-0.194,0.02-0.349,0.059c-0.155,0.039-0.271,0.058-0.349,0.058
				c-0.491,0-0.737-0.194-0.737-0.582v-27.684c0-0.414,0.246-0.621,0.737-0.621c0.078,0,0.194,0.026,0.349,0.078
				c0.155,0.052,0.271,0.078,0.349,0.078s0.207-0.026,0.388-0.078c0.181-0.052,0.311-0.078,0.388-0.078
				c0.465,0,0.698,0.208,0.698,0.623v9.497c0,0.155,0.052,0.233,0.155,0.233c0.103,0,0.207-0.078,0.31-0.233
				c0.491-0.775,0.879-1.279,1.163-1.512c1.06-0.905,2.417-1.357,4.072-1.357c2.507,0,4.317,0.724,5.428,2.171
				c0.957,1.292,1.435,3.231,1.435,5.816V438.399z"/>
			
				<path fill-rule="evenodd" clip-rule="evenodd" fill="#004284" stroke="#FFFFFF" stroke-width="1.0893" stroke-miterlimit="3.8637" d="
				M342.246,437.74c0,0.181-0.129,0.362-0.388,0.543c-0.104,0.026-0.453,0.194-1.047,0.504c-0.491,0.232-0.84,0.349-1.047,0.349
				c-1.008,0-1.512-0.633-1.512-1.9c0-0.232-0.065-0.349-0.194-0.349c-0.052,0-0.311,0.194-0.776,0.582
				c-1.318,1.111-2.843,1.667-4.575,1.667c-2.146,0-3.826-0.491-5.041-1.473c-1.292-1.086-1.938-2.663-1.938-4.731
				c0-2.223,0.92-3.994,2.761-5.312c1.634-1.164,3.604-1.745,5.912-1.745c0.389,0,0.946,0.052,1.672,0.155s1.271,0.155,1.634,0.155
				c0.363,0,0.545-0.285,0.545-0.853v-1.202c0-1.577-0.491-2.688-1.474-3.334c-0.801-0.543-2.055-0.814-3.761-0.814
				c-1.577,0-2.675,0.414-3.296,1.241l-0.155,0.155h-0.155c-0.207,0-0.375-0.129-0.504-0.388c-0.052-0.155-0.142-0.375-0.271-0.659
				c-0.078-0.103-0.207-0.258-0.388-0.465c-0.207-0.336-0.311-0.542-0.311-0.62c0-0.595,0.814-1.073,2.443-1.435
				c1.189-0.285,2.236-0.427,3.141-0.427c5.041,0,7.562,2.159,7.562,6.476v10.314c0,1.835,0.336,2.921,1.008,3.257
				C342.194,437.533,342.246,437.637,342.246,437.74z M338.252,432.971v-3.839c0-0.621-0.896-0.931-2.687-0.931
				c-4.413,0-6.62,1.5-6.62,4.498c0,2.637,1.466,3.955,4.4,3.955c1.194,0,2.271-0.311,3.231-0.931
				C337.693,435,338.252,434.082,338.252,432.971z"/>
			
				<path fill-rule="evenodd" clip-rule="evenodd" fill="#004284" stroke="#FFFFFF" stroke-width="1.0893" stroke-miterlimit="3.8637" d="
				M360.42,438.399c0,0.388-0.233,0.582-0.698,0.582c-0.077,0-0.207-0.019-0.388-0.058c-0.181-0.039-0.31-0.059-0.388-0.059
				s-0.194,0.02-0.349,0.059c-0.155,0.039-0.271,0.058-0.349,0.058c-0.491,0-0.737-0.193-0.737-0.582v-12.99
				c0-1.784-0.271-3.102-0.814-3.955c-0.698-1.034-1.887-1.551-3.567-1.551c-1.81,0-3.179,0.685-4.11,2.055
				c-0.776,1.163-1.164,2.701-1.164,4.614v11.826c0,0.311-0.155,0.504-0.465,0.582h-0.232c-0.078,0-0.207-0.019-0.388-0.058
				c-0.181-0.039-0.311-0.059-0.388-0.059c-0.078,0-0.194,0.02-0.349,0.059c-0.155,0.039-0.271,0.058-0.349,0.058
				c-0.491,0-0.737-0.193-0.737-0.582v-20.046c0-0.388,0.246-0.582,0.737-0.582c0.078,0,0.194,0.02,0.349,0.058
				c0.155,0.039,0.271,0.059,0.349,0.059c0.077,0,0.207-0.02,0.388-0.059c0.181-0.039,0.31-0.058,0.388-0.058
				c0.465,0,0.698,0.194,0.698,0.582v1.861c0,0.155,0.052,0.233,0.155,0.233s0.207-0.078,0.31-0.233
				c0.491-0.775,0.879-1.279,1.164-1.512c1.06-0.905,2.417-1.357,4.071-1.357c2.507,0,4.317,0.724,5.428,2.171
				c0.957,1.292,1.435,3.231,1.435,5.816V438.399z"/>
			
				<path fill-rule="evenodd" clip-rule="evenodd" fill="#004284" stroke="#FFFFFF" stroke-width="1.0893" stroke-miterlimit="3.8637" d="
				M381.475,420.017c0,0.338-0.155,0.507-0.465,0.507c-0.129,0-0.297-0.052-0.504-0.155c-0.207-0.104-0.388-0.155-0.543-0.155
				c-0.879,0-1.318,0.464-1.318,1.392l0.427,0.85c0.284,0.593,0.426,1.34,0.426,2.242c0,2.345-0.711,4.161-2.132,5.45
				c-1.422,1.288-3.303,1.932-5.642,1.932s-3.612,0.013-3.819,0.039c-1.111,0.155-1.667,0.582-1.667,1.279
				c0,0.776,0.762,1.241,2.288,1.396c0.258,0.026,1.409,0.039,3.451,0.039c5.48,0,8.221,1.822,8.221,5.467
				c0,2.068-0.944,3.632-2.831,4.691c-1.525,0.853-3.399,1.28-5.623,1.28c-2.197,0-4.045-0.297-5.545-0.892
				c-2.146-0.827-3.218-2.171-3.218-4.033c0-0.129,0.091-0.246,0.275-0.349c0.183-0.104,0.347-0.194,0.491-0.271
				c0.144-0.078,0.359-0.232,0.647-0.465c0.288-0.698,0.654-1.047,1.099-1.047c0.471,0,0.707,0.326,0.707,0.978
				c0,2.398,1.854,3.598,5.563,3.598c1.288,0,2.37-0.208,3.246-0.624c1.185-0.547,1.777-1.392,1.777-2.537
				c0-2.029-1.68-3.043-5.041-3.043c-3.206,0-5.351-0.181-6.437-0.543c-1.448-0.491-2.171-1.538-2.171-3.141
				c0-1.034,0.4-1.887,1.202-2.56c0.698-0.594,1.59-0.943,2.676-1.047c-2.042-1.241-3.063-3.115-3.063-5.622
				c0-2.275,0.614-4.065,1.842-5.371c1.228-1.305,2.966-1.958,5.215-1.958c1.474,0,2.831,0.31,4.071,0.931
				c0.827,0.414,1.37,0.801,1.629,1.163c0.103,0.155,0.168,0.233,0.194,0.233c0.155,0,0.232-0.078,0.232-0.233
				c0-0.594,0.259-1.118,0.775-1.57c0.517-0.453,1.073-0.679,1.667-0.679c0.775,0,1.28,0.524,1.512,1.571
				c0.026,0.105,0.097,0.308,0.213,0.609C381.417,419.67,381.475,419.886,381.475,420.017z M376.396,424.711
				c0-1.525-0.433-2.733-1.299-3.625c-0.866-0.892-2.075-1.338-3.625-1.338c-2.973,0-4.459,1.655-4.459,4.963
				c0,1.422,0.362,2.598,1.085,3.529c0.801,1.008,1.9,1.512,3.296,1.512c1.603,0,2.837-0.439,3.703-1.318
				S376.396,426.314,376.396,424.711z"/>
			
				<path fill-rule="evenodd" clip-rule="evenodd" fill="#004284" stroke="#FFFFFF" stroke-width="1.0893" stroke-miterlimit="3.8637" d="
				M399.012,428.279c0,0.621-0.887,0.931-2.66,0.931h-10.526c-0.386,0-0.579,0.31-0.579,0.931c0,1.241,0.334,2.391,1.003,3.451
				c1.156,1.81,3.058,2.714,5.706,2.714c0.797,0,1.645-0.22,2.545-0.659c0.899-0.439,1.529-0.982,1.889-1.628
				c0.206-0.362,0.385-0.543,0.54-0.543s0.295,0.064,0.424,0.194c0.128,0.129,0.295,0.285,0.501,0.465
				c0.206,0.181,0.431,0.349,0.675,0.504c0.244,0.155,0.366,0.336,0.366,0.543c0,0.595-0.659,1.344-1.978,2.249
				c-1.577,1.086-3.374,1.628-5.39,1.628c-6.411,0-9.616-3.554-9.616-10.663c0-2.663,0.491-4.938,1.474-6.824
				c1.473-2.818,3.89-4.227,7.251-4.227c3.334,0,5.7,1.473,7.096,4.42C398.585,423.574,399.012,425.746,399.012,428.279z
				 M395.677,426.456c0-1.68-0.362-3.127-1.085-4.343c-0.905-1.525-2.249-2.288-4.033-2.288s-3.154,0.685-4.11,2.055
				c-0.801,1.189-1.202,2.714-1.202,4.575c0,0.233,0.194,0.349,0.582,0.349h9.268C395.483,426.805,395.677,426.689,395.677,426.456z
				"/>
		</g>
		<g>
			<path fill-rule="evenodd" clip-rule="evenodd" fill="#004284" d="M224.236,412.381c0,1.344-0.59,2.017-1.771,2.017
				c-1.25,0-1.861-0.672-1.835-2.017c0.021-0.543,0.214-0.976,0.579-1.299c0.365-0.323,0.784-0.485,1.256-0.485
				s0.885,0.162,1.24,0.485C224.059,411.405,224.236,411.838,224.236,412.381z M223.538,438.399c0,0.388-0.232,0.582-0.698,0.582
				c-0.078,0-0.207-0.02-0.388-0.058c-0.181-0.039-0.31-0.059-0.388-0.059s-0.194,0.02-0.349,0.059
				c-0.155,0.039-0.271,0.058-0.349,0.058c-0.491,0-0.736-0.194-0.736-0.582v-20.046c0-0.388,0.246-0.582,0.736-0.582
				c0.078,0,0.194,0.02,0.349,0.058c0.155,0.039,0.271,0.059,0.349,0.059s0.207-0.02,0.388-0.059
				c0.181-0.039,0.31-0.058,0.388-0.058c0.465,0,0.698,0.194,0.698,0.582V438.399z"/>
			<path fill-rule="evenodd" clip-rule="evenodd" fill="#004284" d="M243.151,438.399c0,0.388-0.233,0.582-0.698,0.582
				c-0.078,0-0.207-0.02-0.388-0.058c-0.181-0.039-0.31-0.059-0.388-0.059s-0.194,0.02-0.349,0.059
				c-0.155,0.039-0.271,0.058-0.349,0.058c-0.491,0-0.737-0.194-0.737-0.582v-12.99c0-1.784-0.271-3.102-0.814-3.955
				c-0.698-1.034-1.887-1.551-3.567-1.551c-1.81,0-3.179,0.685-4.11,2.055c-0.776,1.163-1.164,2.701-1.164,4.614v11.826
				c0,0.311-0.155,0.504-0.465,0.582h-0.232c-0.078,0-0.207-0.02-0.388-0.058c-0.181-0.039-0.311-0.059-0.388-0.059
				c-0.078,0-0.194,0.02-0.349,0.059c-0.155,0.039-0.271,0.058-0.349,0.058c-0.491,0-0.737-0.194-0.737-0.582v-20.046
				c0-0.388,0.246-0.582,0.737-0.582c0.078,0,0.194,0.02,0.349,0.058c0.155,0.039,0.271,0.059,0.349,0.059
				c0.077,0,0.207-0.02,0.388-0.059c0.181-0.039,0.31-0.058,0.388-0.058c0.465,0,0.698,0.194,0.698,0.582v1.861
				c0,0.155,0.052,0.233,0.155,0.233s0.207-0.078,0.31-0.233c0.491-0.775,0.879-1.279,1.164-1.512
				c1.06-0.905,2.417-1.357,4.071-1.357c2.507,0,4.317,0.724,5.428,2.171c0.957,1.292,1.435,3.231,1.435,5.816V438.399z"/>
			<path fill-rule="evenodd" clip-rule="evenodd" fill="#004284" d="M255.792,419.632c0,0.439-0.202,0.659-0.604,0.659h-1.586
				c-0.201,0-0.51-0.02-0.925-0.058s-0.724-0.058-0.925-0.058c-0.228,0.078-0.328,0.607-0.302,1.59v6.049v10.469
				c0,0.465-0.271,0.698-0.814,0.698c-0.078,0-0.181-0.02-0.31-0.058c-0.129-0.039-0.233-0.059-0.311-0.059
				c-0.077,0-0.181,0.02-0.31,0.059c-0.129,0.039-0.232,0.058-0.31,0.058c-0.569,0-0.853-0.233-0.853-0.698v-14.696
				c0-0.827,0.026-1.628,0.078-2.404c0.052-0.491,0.052-0.763,0-0.814s-0.621-0.078-1.706-0.078h-1.125
				c-0.414,0-0.621-0.22-0.621-0.659c0-0.052,0-0.142,0-0.271v-0.543c0-0.129,0-0.232,0-0.31c0-0.414,0.209-0.62,0.628-0.62h1.137
				c1.072,0,1.49,0,1.254,0c0.313-0.025,0.457-0.282,0.432-0.77c-0.052-0.77-0.078-1.321-0.078-1.654v-1.77
				c0-0.462,0.288-0.692,0.864-0.692c0.079,0,0.177,0,0.295,0s0.216,0,0.295,0s0.19,0,0.334,0s0.255,0,0.334,0
				c0.524,0,0.786,0.232,0.786,0.698v3.877c0.152,0.207,0.914,0.311,2.286,0.311h1.448c0.406,0,0.609,0.207,0.609,0.62v0.31
				c0,0.104,0,0.181,0,0.233c0,0.078,0,0.181,0,0.31V419.632z"/>
			<path fill-rule="evenodd" clip-rule="evenodd" fill="#004284" d="M274.164,428.279c0,0.621-0.887,0.931-2.66,0.931h-10.526
				c-0.386,0-0.579,0.31-0.579,0.931c0,1.241,0.334,2.391,1.003,3.451c1.156,1.81,3.058,2.714,5.706,2.714
				c0.797,0,1.645-0.22,2.545-0.659c0.899-0.439,1.529-0.982,1.889-1.628c0.206-0.362,0.385-0.543,0.539-0.543
				c0.154,0,0.296,0.064,0.425,0.194c0.128,0.129,0.295,0.285,0.501,0.465c0.206,0.181,0.431,0.349,0.675,0.504
				c0.244,0.155,0.366,0.336,0.366,0.543c0,0.595-0.659,1.344-1.978,2.249c-1.577,1.086-3.374,1.628-5.39,1.628
				c-6.411,0-9.616-3.554-9.616-10.663c0-2.663,0.491-4.938,1.473-6.824c1.474-2.818,3.891-4.227,7.251-4.227
				c3.335,0,5.7,1.473,7.096,4.42C273.737,423.574,274.164,425.746,274.164,428.279z M270.829,426.456
				c0-1.68-0.362-3.127-1.086-4.343c-0.905-1.525-2.249-2.288-4.032-2.288c-1.784,0-3.154,0.685-4.11,2.055
				c-0.801,1.189-1.202,2.714-1.202,4.575c0,0.233,0.194,0.349,0.582,0.349h9.268C270.635,426.805,270.829,426.689,270.829,426.456z
				"/>
			<path fill-rule="evenodd" clip-rule="evenodd" fill="#004284" d="M288.673,419.244c0,0.155-0.078,0.362-0.233,0.62
				c-0.078,0.078-0.194,0.233-0.349,0.465c-0.129,0.698-0.349,1.047-0.659,1.047c-0.129,0-0.284-0.104-0.465-0.311
				c-0.594-0.698-1.473-1.047-2.637-1.047c-1.551,0-2.714,0.944-3.49,2.831c-0.542,1.37-0.814,2.973-0.814,4.808v10.741
				c0,0.388-0.233,0.582-0.698,0.582c-0.078,0-0.207-0.02-0.388-0.058c-0.181-0.039-0.31-0.059-0.388-0.059s-0.194,0.02-0.349,0.059
				c-0.155,0.039-0.271,0.058-0.349,0.058c-0.491,0-0.737-0.194-0.737-0.582v-20.046c0-0.388,0.246-0.582,0.737-0.582
				c0.077,0,0.194,0.02,0.349,0.058c0.155,0.039,0.271,0.059,0.349,0.059s0.207-0.02,0.388-0.059
				c0.181-0.039,0.31-0.058,0.388-0.058c0.465,0,0.698,0.194,0.698,0.582v1.861c0,0.155,0.051,0.233,0.155,0.233
				c0.155,0,0.285-0.117,0.388-0.349c0.853-1.81,2.249-2.714,4.188-2.714c0.724,0,1.499,0.142,2.327,0.427
				C288.143,418.171,288.673,418.649,288.673,419.244z"/>
		</g>
		<polygon fill="#BB7009" points="164.959,390.614 151.858,403.715 158.713,410.57 164.959,404.324 171.205,410.57 178.06,403.715 
					"/>
		<polygon fill="#208CBD" points="195.426,421.081 182.325,407.98 175.47,414.835 181.716,421.081 175.47,427.327 182.325,434.182 
					"/>
		<polygon fill="#D2AA55" points="134.492,421.081 147.593,434.182 154.448,427.327 148.202,421.081 154.448,414.835 
			147.593,407.98 		"/>
	</g>
</g>
</svg>
