<svg xmlns="http://www.w3.org/2000/svg" xmlns:xlink="http://www.w3.org/1999/xlink" height="79.446" width="481.506"><path stroke-miterlimit="3.86369991" d="M73.437.468v78.5" fill="none" stroke="#bb7009" stroke-width=".923" stroke-linecap="round" stroke-linejoin="round"/><path d="M43.57 57.086l-13.102 13.1-13.1-13.1 6.855-6.855 6.245 6.246 6.246-6.246z" fill="#004284"/><path d="M43.568 22.36l-13.1-13.1-13.1 13.1 6.855 6.855 6.246-6.246 6.246 6.246z" fill="#bb7009"/><path d="M47.833 52.826l13.1-13.1-13.1-13.1-6.855 6.855 6.246 6.246-6.246 6.246z" fill="#208cbd"/><path d="M13.1 26.624L0 39.725l13.1 13.1 6.855-6.855-6.246-6.246 6.246-6.246z" fill="#d2aa55"/><g fill="#004284"><path d="M87.58 26.143q-.76 0-1.24-.44-.44-.48-.44-1.24 0-.76.44-1.2.48-.48 1.24-.48.76 0 1.2.48.48.44.48 1.2 0 .76-.48 1.24-.44.44-1.2.44zm1 3.88v20h-2v-20z"/><use xlink:href="#B"/><path d="M119.434 24.463v20.28q0 1.88.88 2.88.92.96 2.64.96 1.12 0 1.96-.36.88-.4 1.56-1.12l.76 1.64q-.76.76-1.92 1.24-1.16.44-2.6.44-1.56 0-2.76-.56-1.2-.6-1.88-1.8-.64-1.2-.64-3.04v-20zm7.48 5.56v1.72h-13.48v-1.72z"/><use xlink:href="#C"/><path d="M150.256 50.023v-20h1.68l.24 4.2q.76-2.12 2.44-3.36 1.68-1.24 4.04-1.24.8 0 1.44.16.64.16 1.04.52l-.44 1.76q-.44-.28-.96-.44-.52-.16-1.56-.16-1.52 0-2.88.96-1.36.92-2.2 2.6-.84 1.64-.84 3.8v11.2zm21.01-20.4q2.04 0 3.64.64 1.6.64 2.72 1.84 1.12 1.2 1.72 2.92l-1.88.88q-.64-2.16-2.24-3.32-1.56-1.2-4-1.2-2.2 0-3.88 1.04-1.68 1-2.6 2.96-.92 1.92-.92 4.64 0 2.68.92 4.64.92 1.96 2.56 3 1.64 1 3.88 1 1.68 0 3.04-.56 1.4-.56 2.28-1.64.92-1.08 1.2-2.56l1.84.64q-.52 1.84-1.72 3.16-1.16 1.32-2.84 2.04-1.68.68-3.76.68-2.72 0-4.88-1.24-2.12-1.24-3.32-3.56-1.2-2.36-1.2-5.6 0-3.24 1.2-5.56 1.24-2.36 3.36-3.6 2.16-1.24 4.88-1.24zm12.038 20.4v-29.2h2v13.28q.88-2.12 2.84-3.28 1.96-1.2 4.52-1.2 2.24 0 3.96.84 1.72.8 2.68 2.48 1 1.64 1 4.08v13h-2v-12.36q0-3.24-1.64-4.76-1.6-1.56-4.2-1.56-1.88 0-3.52.88-1.6.88-2.64 2.52-1 1.64-1 4v11.28zm34.545-13.16q0-2.6-1.4-4.04-1.4-1.44-4-1.44-2.28 0-3.92 1-1.64.96-2.44 3.24l-1.64-1.04q.88-2.36 2.92-3.64 2.08-1.32 5.12-1.32 2.2 0 3.84.8 1.68.76 2.6 2.28.92 1.52.92 3.8v10q0 2.12 1.92 2.12.84 0 1.44-.28l-.12 1.6q-.68.36-1.76.36-.92 0-1.72-.36-.8-.36-1.32-1.2-.48-.84-.48-2.28v-1.08l.56-.04q-.36 1.72-1.6 2.88-1.2 1.12-2.8 1.68-1.6.52-3.2.52-1.88 0-3.36-.6-1.48-.6-2.32-1.72-.84-1.16-.84-2.84 0-2.24 1.48-3.6 1.52-1.4 4.24-1.92l8.28-1.64v1.68l-7.28 1.44q-2.36.48-3.52 1.4-1.16.92-1.16 2.52 0 1.64 1.24 2.6 1.24.92 3.52.92 1.16 0 2.36-.32 1.2-.32 2.2-1 1.04-.72 1.64-1.76.6-1.08.6-2.6z"/><use xlink:href="#B" x="131.61"/><path d="M264.594 26.343l.48 1.76q-.04 0-.08 0-.04 0-.12 0-1.96 0-3.04 1.04-1.04 1-1.04 2.84l-1.28-.64q0-1.52.64-2.64.64-1.12 1.76-1.72 1.12-.64 2.52-.64.08 0 .08 0 .04 0 .08 0zm-6.32 21.64q2.96 0 4.64 1.24 1.68 1.24 1.68 3.32 0 1.84-1.24 3.2-1.2 1.36-3.32 2.12-2.12.76-4.84.76-4.52 0-6.92-1.56-2.4-1.52-2.4-3.84 0-1.68 1.2-2.92 1.24-1.24 3.6-1.48l-.16.36q-1.28-.36-2.28-1.2-.96-.84-.96-2.4 0-1.68 1.24-2.72 1.28-1.08 3.36-1.24l2.12.72h-.84q-1.84.12-2.96.92-1.08.76-1.08 2 0 1.36 1.04 2.04 1.08.68 2.72.68zm-3.08 8.96q2.36 0 4.04-.56 1.68-.56 2.56-1.52.92-.92.92-2.08 0-1.4-1.24-2.24-1.2-.84-3.68-.84h-5.68q-1.88 0-3.12.88-1.24.88-1.24 2.36 0 1.8 1.96 2.88 2 1.12 5.48 1.12zm-.28-27.32q2.36 0 4.16.84 1.84.8 2.84 2.28 1 1.44 1 3.4 0 1.92-1 3.44-1 1.48-2.84 2.32-1.8.8-4.16.8-3.8 0-5.96-1.8-2.12-1.84-2.12-4.76 0-1.96 1-3.4 1.04-1.48 2.84-2.28 1.84-.84 4.24-.84zm0 1.64q-2.64 0-4.32 1.36-1.68 1.32-1.68 3.52 0 2.2 1.68 3.56 1.68 1.36 4.32 1.36 2.64 0 4.28-1.36 1.68-1.36 1.68-3.56 0-2.2-1.68-3.52-1.64-1.36-4.28-1.36z"/><use xlink:href="#C" x="137.468"/><use xlink:href="#D"/><path d="M326.232 29.623q2.76 0 4.88 1.24 2.12 1.24 3.32 3.6 1.2 2.32 1.2 5.56 0 3.24-1.2 5.6-1.2 2.32-3.32 3.56-2.12 1.24-4.88 1.24-2.76 0-4.88-1.24-2.12-1.24-3.36-3.56-1.2-2.36-1.2-5.6 0-3.24 1.2-5.56 1.24-2.36 3.36-3.6 2.12-1.24 4.88-1.24zm0 .96q-2.48 0-4.36 1.16-1.84 1.12-2.92 3.24-1.04 2.08-1.04 5.04 0 2.92 1.04 5.04 1.08 2.12 2.92 3.28 1.88 1.12 4.36 1.12 2.44 0 4.28-1.12 1.88-1.16 2.92-3.28 1.04-2.12 1.04-5.04 0-2.96-1.04-5.04-1.04-2.12-2.92-3.24-1.84-1.16-4.28-1.16z"/><use xlink:href="#E"/><use xlink:href="#E" x="36.993"/><use xlink:href="#F"/><path d="M433.664 50.023v-20h1l.08 4.84q.72-2.28 2.4-3.76 1.72-1.48 4.12-1.48.96 0 1.64.24.68.2 1.08.6l-.4.96q-.4-.36-.92-.56-.52-.24-1.6-.24-1.76 0-3.2 1.12-1.4 1.08-2.24 2.88-.84 1.8-.84 3.92v11.48z"/><use xlink:href="#D" x="147.114"/><use xlink:href="#F" x="51.761"/></g><defs ><path id="B" d="M94.12 50.023v-20h1.8l.16 5-.32-.28q.56-1.64 1.68-2.76 1.12-1.16 2.68-1.76 1.56-.6 3.36-.6 2.24 0 3.96.84 1.72.84 2.68 2.48 1 1.64 1 4.12v12.96h-2v-12.32q0-3.28-1.64-4.8-1.6-1.52-4.2-1.52-1.88 0-3.52.88-1.6.84-2.64 2.48-1 1.64-1 4v11.28z"/><path id="C" d="M137.75 50.423q-2.76 0-4.92-1.24-2.16-1.24-3.4-3.56-1.2-2.36-1.2-5.6 0-3.24 1.2-5.56 1.24-2.36 3.32-3.6 2.08-1.24 4.76-1.24 2.72 0 4.64 1.2 1.92 1.2 2.96 3.36 1.04 2.12 1.04 4.92 0 .36-.04.72 0 .32-.04.6h-16.6v-1.8h15.72l-1 .28q-.04-3.44-1.84-5.48-1.76-2.04-4.88-2.04-2.16 0-3.8 1.04-1.64 1-2.56 2.96-.92 1.92-.92 4.64 0 2.68.92 4.64.96 1.96 2.64 3 1.72 1 3.96 1 2.32 0 3.96-1 1.68-1 2.6-2.76l1.6.92q-.72 1.44-1.92 2.48-1.2 1-2.76 1.56-1.56.56-3.44.56z"/><path id="D" d="M306.463 29.623q2 0 3.6.64 1.6.64 2.68 1.88 1.12 1.2 1.64 2.92l-1 .52q-.64-2.4-2.44-3.68-1.8-1.28-4.52-1.28-2.36 0-4.2 1.12-1.84 1.12-2.92 3.24-1.04 2.08-1.04 5.04 0 2.92 1.04 5.04 1.04 2.12 2.84 3.24 1.84 1.12 4.2 1.12 1.8 0 3.32-.64 1.56-.64 2.56-1.8 1.04-1.2 1.32-2.8l1.04.36q-.4 1.8-1.6 3.12-1.16 1.32-2.88 2.04-1.68.72-3.76.72-2.68 0-4.76-1.24-2.04-1.24-3.24-3.56-1.2-2.36-1.2-5.6 0-3.24 1.2-5.56 1.24-2.36 3.32-3.6 2.12-1.24 4.8-1.24z"/><path id="E" d="M339.56 50.023v-20h1.04l.04 4.92q.72-2.36 2.88-3.84 2.16-1.48 5.08-1.48 2.92 0 4.84 1.44 1.92 1.44 2.4 4.12.44-1.64 1.6-2.88 1.16-1.28 2.84-2 1.72-.76 3.72-.76 2.24 0 3.88.88 1.68.84 2.6 2.48.96 1.6.96 3.96v13.08h-1.12v-12.96q0-3.12-1.76-4.76-1.76-1.68-4.72-1.68-2.2 0-3.96 1.04-1.76 1-2.8 2.72-1 1.72-1 3.8v11.92h-1.16v-12.96q0-3.12-1.76-4.76-1.76-1.68-4.72-1.68-2.12 0-3.92 1-1.76 1-2.8 2.76-1.04 1.72-1.04 3.84v11.8z"/><path id="F" d="M421.545 50.423q-2.68 0-4.8-1.24-2.12-1.24-3.36-3.56-1.24-2.36-1.24-5.6 0-3.28 1.2-5.6 1.24-2.32 3.28-3.56 2.04-1.24 4.6-1.24 2.68 0 4.56 1.2 1.92 1.2 2.92 3.4 1.04 2.16 1.04 5.16 0 .16 0 .36 0 .16-.04.28h-16.88v-1h16.4l-.52.24q-.04-3.88-2-6.24-1.92-2.4-5.48-2.4-2.28 0-4.08 1.12-1.8 1.12-2.84 3.24-1.04 2.08-1.04 5.04 0 2.96 1.04 5.08 1.08 2.08 2.92 3.2 1.88 1.12 4.28 1.12 2.4 0 4.28-1.12 1.88-1.12 2.84-3.08l.92.52q-.68 1.44-1.88 2.48-1.2 1.04-2.76 1.64-1.56.56-3.36.56z"/></defs></svg>